# xmcd CD database file
#
# Track frame offsets:
#	150
#	27150
#	55580
#	97780
#	127592
#	157650
#
# Disc length: 2413 seconds
#
# Revision: 0
# Processed by: cddbd v1.5.1PL0 Copyright (c) Steve Scherf et al.
# Submitted via: CDex 1.51
#
DISCID=2e096b06
DTITLE=Art Blakey and The Jazz Messengers - Buhaina's Delight
DYEAR=1961
DGENRE=Jazz
TTITLE0=Backstage Sally
TTITLE1=Contemplation
TTITLE2=Bu's Delight
TTITLE3=Reincarnation Blues
TTITLE4=Shaky Jake
TTITLE5=Moon River
EXTD=YEAR: 1961
EXTT0=
EXTT1=
EXTT2=
EXTT3=
EXTT4=
EXTT5=
PLAYORDER=
